# xmcd
#
# Track frame offsets: 
#        150
#        19102
#        34566
#        53876
#        69208
#        89151
#        101195
#        117181
#        137124
#        157429
#        181203
#        199931
#        227467
#        250989
#        271545
#        284144
#        324595
#
# Disc length: 4709 seconds
#
# Revision: 0
# Processed by: cddbd v1.5.2PL0 Copyright (c) Steve Scherf et al.
# Submitted via: ExactAudioCopy v1.3
#
DISCID=f9126311
DTITLE=Denis Mazhukov - Rock'n'Roll Live In Mirande, France
DYEAR=2016
DGENRE=Rock and Roll
TTITLE0=Introduction - Mean Woman Blues
TTITLE1=High School Confedencial
TTITLE2=That's All Right Mama
TTITLE3=Don't Be Cruel
TTITLE4=How's My Ex Treating You
TTITLE5=Just Because
TTITLE6=Corrine Corrine
TTITLE7=Rockin' My Life Away
TTITLE8=Great Balls Of Fire
TTITLE9=You Win Again
TTITLE10=I'm On Fire
TTITLE11=Hallelujah I Love Her So
TTITLE12=What'd I Say
TTITLE13=You Got What It Takes
TTITLE14=Long Tall Sally
TTITLE15=Whole Lotta Shakin' Goin On
TTITLE16=Rock'n'Roll Medle - Good Golly Miss Molly
EXTD=
EXTT0=
EXTT1=
EXTT2=
EXTT3=
EXTT4=
EXTT5=
EXTT6=
EXTT7=
EXTT8=
EXTT9=
EXTT10=
EXTT11=
EXTT12=
EXTT13=
EXTT14=
EXTT15=
EXTT16=
PLAYORDER=
